<svg width="130" height="52" viewBox="0 0 130 52" fill="none" xmlns="http://www.w3.org/2000/svg">
<path d="M43.873 34.5586C43.873 34.5703 43.8672 34.5938 43.8555 34.6289C43.7266 35.543 43.2578 36 42.4492 36C42.168 36 41.9219 35.9297 41.7109 35.7891C41.2422 35.4844 41.0078 34.9863 41.0078 34.2949C41.0078 34.0957 41.5586 29.2852 42.6602 19.8633C39.8711 25.7344 37.6797 30.3691 36.0859 33.7676C35.7461 34.4941 35.5527 34.8984 35.5059 34.9805C35.1543 35.6484 34.6855 35.9883 34.0996 36C33.9824 36 33.8711 35.9883 33.7656 35.9648C33.2734 35.8711 32.8984 35.4668 32.6406 34.752L29.5996 19.8281C28.9199 25.1953 28.2285 30.1055 27.5254 34.5586C27.5254 34.5703 27.5195 34.5938 27.5078 34.6289C27.3789 35.543 26.9102 36 26.1016 36C25.8203 36 25.5742 35.9297 25.3633 35.7891C24.8945 35.4844 24.6602 34.9863 24.6602 34.2949C24.6602 34.1777 25.4922 27.8555 27.1562 15.3281C27.5898 12.0938 27.8242 10.3477 27.8594 10.0898C27.8945 9.87891 27.9648 9.68555 28.0703 9.50977C28.3633 9.04102 28.791 8.80664 29.3535 8.80664C29.4824 8.80664 29.6172 8.82422 29.7578 8.85938C30.2617 9 30.5488 9.26367 30.6191 9.65039C30.8535 10.9629 31.6094 14.7832 32.8867 21.1113C33.8008 25.6934 34.3867 28.6523 34.6445 29.9883L44.1543 9.82617C44.2012 9.70898 44.2656 9.58594 44.3477 9.45703C44.6875 9.02344 45.1094 8.80664 45.6133 8.80664C45.8359 8.80664 46.0469 8.86523 46.2461 8.98242C46.7148 9.24023 46.9727 9.63867 47.0195 10.1777C46.9727 10.5176 46.9258 10.9102 46.8789 11.3555C45.1562 25.1016 44.1543 32.8359 43.873 34.5586ZM49.7617 30.4805C49.7617 30.082 49.7852 29.6602 49.832 29.2148C50.0781 27.1992 50.7109 25.4121 51.7305 23.8535C52.9727 21.9551 54.4668 21.0059 56.2129 21.0059C56.9629 21.0059 57.6191 21.1523 58.1816 21.4453C58.416 21.1641 58.7383 21.0176 59.1484 21.0059C59.3828 21.0059 59.5293 21.0234 59.5879 21.0586C60.0918 21.2227 60.3438 21.7207 60.3438 22.5527C60.3438 22.8926 60.2852 23.625 60.168 24.75C59.8047 28.0781 59.623 30.1465 59.623 30.9551C59.623 31.4941 59.7344 31.998 59.957 32.4668C60.2852 33.1699 60.7188 33.5215 61.2578 33.5215C61.3633 33.5215 61.4746 33.5098 61.5918 33.4863C61.9434 33.416 62.4473 33.1465 63.1035 32.6777C63.748 32.209 64.2637 31.9746 64.6504 31.9746C64.8027 31.9746 64.9609 32.0273 65.125 32.1328C65.4648 32.3672 65.6348 32.6777 65.6348 33.0645C65.5996 33.6738 65.1367 34.3066 64.2461 34.9629C63.1797 35.7129 62.0488 36.0879 60.8535 36.0879C59.377 36.0762 58.2871 35.332 57.584 33.8555C57.4199 34.0547 57.2324 34.2539 57.0215 34.4531C55.8613 35.543 54.6836 36.0879 53.4883 36.0879C52.7383 36.0879 52.0879 35.8945 51.5371 35.5078C50.3535 34.6406 49.7617 32.9648 49.7617 30.4805ZM57.4961 24.6973C57.4961 24.6973 57.5371 24.2988 57.6191 23.502C57.3613 23.373 57.0918 23.3086 56.8105 23.3086C56.5996 23.3086 56.3828 23.3379 56.1602 23.3965C55.0703 23.7012 54.1504 24.709 53.4004 26.4199C52.7324 27.9551 52.3984 29.4961 52.3984 31.043C52.3984 31.1016 52.3984 31.1602 52.3984 31.2188C52.4336 32.6484 52.7969 33.3633 53.4883 33.3633C53.8516 33.3516 54.2969 33.1523 54.8242 32.7656C55.3633 32.3789 55.7559 32.0156 56.002 31.6758C56.1543 31.4531 56.3594 30.8027 56.6172 29.7246C57.0859 27.7207 57.3789 26.0449 57.4961 24.6973ZM67.0234 20.9355C67.7734 20.9473 68.1602 21.4043 68.1836 22.3066C68.1836 22.4824 68.1367 22.8633 68.043 23.4492C67.6445 26.0625 67.4453 27.9551 67.4453 29.127C67.4453 31.6582 68.0898 32.9355 69.3789 32.959C69.6602 32.9355 69.9297 32.8418 70.1875 32.6777C71.2773 31.9746 72.0977 29.7246 72.6484 25.9277C72.7891 24.9434 72.8887 23.8477 72.9473 22.6406C72.959 22.5234 72.9648 22.4531 72.9648 22.4297C72.9766 22.3477 72.9883 22.2715 73 22.2012C73.1406 21.416 73.5801 21.0234 74.3184 21.0234C74.459 21.0234 74.5996 21.0469 74.7402 21.0938C75.2676 21.2812 75.5312 21.7852 75.5312 22.6055C75.5312 22.6992 75.5254 22.8281 75.5137 22.9922C75.5137 23.0977 75.5137 23.168 75.5137 23.2031L73.7383 36.1582C76.5625 34.0371 78.2266 32.7598 78.7305 32.3262C79.1875 31.9512 79.6387 31.7637 80.084 31.7637C80.2363 31.7637 80.3945 31.8105 80.5586 31.9043C80.8984 32.127 81.0684 32.4258 81.0684 32.8008C81.0566 33.3516 80.7344 33.8965 80.1016 34.4355C78.918 35.4434 76.6328 37.2422 73.2461 39.832L72.4551 45.6152C72.2559 46.998 71.623 48.0469 70.5566 48.7617C69.8066 49.2539 69.0391 49.5 68.2539 49.5C67.1758 49.5 66.2207 49.0957 65.3887 48.2871C64.5801 47.4785 64.1758 46.5703 64.1758 45.5625C64.1758 44.4961 64.4395 43.6289 64.9668 42.9609C65.2363 42.6211 65.7812 42.1465 66.6016 41.5371C66.707 41.4199 68.1133 40.3594 70.8203 38.3555C70.9727 37.3008 71.1309 36.2754 71.2949 35.2793C70.6152 35.5957 69.8301 35.7539 68.9395 35.7539C68.5176 35.7539 68.1191 35.7012 67.7441 35.5957C65.6934 34.9746 64.668 32.7188 64.668 28.8281C64.6797 26.8945 64.8848 25.0137 65.2832 23.1855C65.6113 21.7676 66.1914 21.0176 67.0234 20.9355ZM69.959 44.2266C69.959 44.2266 70.0586 43.5059 70.2578 42.0645C69.0508 42.9785 68.4004 43.4766 68.3066 43.5586C67.4629 44.2148 67.0352 44.8125 67.0234 45.3516C67.0234 45.5508 67.0586 45.7441 67.1289 45.9316C67.3281 46.4473 67.7031 46.7051 68.2539 46.7051C68.4648 46.7051 68.6523 46.6699 68.8164 46.5996C69.4023 46.377 69.7832 45.5859 69.959 44.2266ZM98.6992 33.1699C98.3945 32.2441 98.2422 31.0488 98.2422 29.584C98.2422 28.4707 98.3535 27.1406 98.5762 25.5938C98.1777 25.793 97.7383 25.9395 97.2578 26.0332C97.1172 26.748 96.9355 27.4746 96.7129 28.2129C95.916 30.9082 94.9316 32.959 93.7598 34.3652C93.5605 34.5996 93.3203 34.8281 93.0391 35.0508C92.043 35.8242 90.9941 36.2109 89.8926 36.2109C88.4395 36.1992 87.4023 35.5371 86.7812 34.2246C85.75 35.502 84.332 36.1465 82.5273 36.1582C82.1172 36.1582 81.7305 36.1055 81.3672 36C79.3047 35.3906 78.2734 33.1289 78.2734 29.2148C78.2734 29.1445 78.2734 29.0684 78.2734 28.9863C78.2969 27.0879 78.502 25.2832 78.8887 23.5723C79.2285 22.084 79.8027 21.334 80.6113 21.3223C81.373 21.334 81.7656 21.7969 81.7891 22.7109C81.7891 22.8867 81.7363 23.2852 81.6309 23.9062C81.2207 26.5664 81.0156 28.4824 81.0156 29.6543C81.0156 32.0918 81.6309 33.3223 82.8613 33.3457C84.5137 33.2285 85.6328 31.0664 86.2188 26.8594C86.3711 25.7227 86.4824 24.4453 86.5527 23.0273C86.5645 22.9102 86.5703 22.8398 86.5703 22.8164C86.6641 21.8906 87.1152 21.4219 87.9238 21.4102C88.0059 21.4102 88.0879 21.416 88.1699 21.4277C88.7559 21.5449 89.0488 22.0137 89.0488 22.834C88.7559 25.8574 88.6094 28.4414 88.6094 30.5859C88.6094 30.8906 88.6328 31.2012 88.6797 31.5176C88.8672 32.9121 89.377 33.6094 90.209 33.6094C91.1348 33.6094 91.9961 32.9062 92.793 31.5C93.4141 30.4102 94.1055 28.5645 94.8672 25.9629C94.4922 25.8574 94.1406 25.7168 93.8125 25.541C92.5938 24.8496 91.9844 23.7539 91.9844 22.2539C91.9844 21.7617 92.1074 21.293 92.3535 20.8477C92.8691 19.957 93.6895 19.5117 94.8145 19.5117C95.3887 19.5117 95.9336 19.6641 96.4492 19.9688C97.293 20.4844 97.7148 21.2051 97.7148 22.1309C97.7148 22.5059 97.6855 22.9863 97.627 23.5723C98.084 23.3379 98.6992 22.9395 99.4727 22.377C99.6953 22.2246 99.959 22.1426 100.264 22.1309C100.732 22.1426 101.137 22.2949 101.477 22.5879C101.664 22.7402 101.764 22.8984 101.775 23.0625C101.775 23.1914 101.734 23.3789 101.652 23.625C101.043 25.6875 100.738 27.4629 100.738 28.9512C100.738 29.8887 100.838 30.7852 101.037 31.6406C101.037 31.6641 101.043 31.6934 101.055 31.7285C101.324 32.7012 101.816 33.1875 102.531 33.1875C102.883 33.1523 103.469 32.8945 104.289 32.4141C105.016 31.9336 105.555 31.6934 105.906 31.6934C106.082 31.6934 106.258 31.7578 106.434 31.8867C106.738 32.1094 106.891 32.373 106.891 32.6777C106.844 33.334 106.381 34.0078 105.502 34.6992C104.459 35.4492 103.346 35.8242 102.162 35.8242C101.893 35.8242 101.623 35.7949 101.354 35.7363C100.1 35.4551 99.2148 34.5996 98.6992 33.1699ZM94.0938 22.377C94.1055 23.0332 94.5156 23.502 95.3242 23.7832C95.4414 23.1621 95.5 22.6934 95.5 22.377C95.5 22.3066 95.4883 22.2305 95.4648 22.1484C95.3828 21.832 95.166 21.6738 94.8145 21.6738C94.7559 21.6738 94.6855 21.6855 94.6035 21.709C94.2637 21.8027 94.0938 22.0254 94.0938 22.377Z" fill="#E9B171"/>
</svg>
