<svg width="48" height="48" viewBox="0 0 48 48" fill="none" xmlns="http://www.w3.org/2000/svg">
<path d="M9.5999 6.40002C7.8319 6.40002 6.3999 7.83202 6.3999 9.60002V38.4C6.3999 40.168 7.8319 41.6 9.5999 41.6H38.3999C40.1679 41.6 41.5999 40.168 41.5999 38.4V9.60002C41.5999 7.83202 40.1679 6.40002 38.3999 6.40002H9.5999ZM16.6624 16.2031H19.8343L25.4437 31.9875H22.4155L21.0812 27.95H15.2718L13.9155 31.9875H11.0624L16.6624 16.2031ZM18.0937 19.2125L15.928 25.7188H20.4249L18.2812 19.2125H18.0937ZM32.2468 19.7813C35.6596 19.7813 37.7062 22.0444 37.7062 25.8188V26.6938H29.3499V26.8344C29.4155 28.8248 30.5628 30.0719 32.3468 30.0719C33.6908 30.0719 34.6219 29.5802 35.0155 28.6938H37.5843C37.0723 30.8714 35.0895 32.2281 32.2687 32.2281C28.7471 32.2281 26.6249 29.8965 26.6249 26.0469C26.6249 22.1973 28.7812 19.7813 32.2468 19.7813ZM32.2374 21.9313C30.6182 21.9313 29.4809 23.0918 29.3593 24.8406H34.9937C34.9377 23.0694 33.8646 21.9313 32.2374 21.9313Z" fill="#C32285"/>
</svg>
