<svg width="48" height="49" viewBox="0 0 48 49" fill="none" xmlns="http://www.w3.org/2000/svg">
<path d="M9.99977 12.9985L12.9998 37.9985L4.98077 29.9795C3.79177 28.7905 3.47277 26.9835 4.18477 25.4595L9.99977 12.9985Z" fill="#C32285"/>
<path d="M27.319 7.31753C26.474 6.47253 25.329 5.99854 24.135 5.99854C23.39 5.99854 22.656 6.18354 22 6.53654L10 12.9985V33.3415C10 34.4025 10.421 35.4195 11.172 36.1695L13 37.9985H35V32.9985L42 21.9985L27.319 7.31753Z" fill="#C32285" fill-opacity="0.6"/>
<path d="M10 12.9985H31.343C32.404 12.9985 33.421 13.4195 34.171 14.1705L42 21.9985V37.9985H35L10 12.9985Z" fill="#C32285"/>
<path d="M35 37.9985H13L19 43.9985H35V37.9985Z" fill="#C32285" fill-opacity="0.4"/>
</svg>
