<svg width="48" height="48" viewBox="0 0 48 48" fill="none" xmlns="http://www.w3.org/2000/svg">
<path d="M16.0001 46.4C12.4657 46.4 9.6001 43.5344 9.6001 40C9.6001 36.4656 12.4657 33.6 16.0001 33.6H20.5713C21.5809 33.6 22.4001 34.4192 22.4001 35.4288V40C22.4001 43.5344 19.5345 46.4 16.0001 46.4ZM32.0001 14.4H27.4289C26.4193 14.4 25.6001 13.5808 25.6001 12.5712V3.42878C25.6001 2.41918 26.4193 1.59998 27.4289 1.59998H32.0001C35.5345 1.59998 38.4001 4.46558 38.4001 7.99998C38.4001 11.5344 35.5345 14.4 32.0001 14.4ZM16.0001 1.59998H20.5713C21.5809 1.59998 22.4001 2.41918 22.4001 3.42878V12.5712C22.4001 13.5808 21.5809 14.4 20.5713 14.4H16.0001C12.4657 14.4 9.6001 11.5344 9.6001 7.99998C9.6001 4.46558 12.4657 1.59998 16.0001 1.59998ZM16.0001 17.6H20.5713C21.5809 17.6 22.4001 18.4192 22.4001 19.4288V28.5712C22.4001 29.5808 21.5809 30.4 20.5713 30.4H16.0001C12.4657 30.4 9.6001 27.5344 9.6001 24C9.6001 20.4656 12.4657 17.6 16.0001 17.6ZM32.0001 17.6C30.3027 17.6 28.6748 18.2743 27.4746 19.4745C26.2744 20.6747 25.6001 22.3026 25.6001 24C25.6001 25.6974 26.2744 27.3252 27.4746 28.5255C28.6748 29.7257 30.3027 30.4 32.0001 30.4C33.6975 30.4 35.3253 29.7257 36.5256 28.5255C37.7258 27.3252 38.4001 25.6974 38.4001 24C38.4001 22.3026 37.7258 20.6747 36.5256 19.4745C35.3253 18.2743 33.6975 17.6 32.0001 17.6Z" fill="#C32285"/>
</svg>
