<svg width="64" height="64" viewBox="0 0 64 64" fill="none" xmlns="http://www.w3.org/2000/svg">
<path d="M51.1999 8.53333H12.7999C10.4425 8.53333 8.5332 10.4427 8.5332 12.8V51.2C8.5332 53.5573 10.4425 55.4667 12.7999 55.4667H51.1999C53.5572 55.4667 55.4665 53.5573 55.4665 51.2V12.8C55.4665 10.4427 53.5572 8.53333 51.1999 8.53333ZM32.7529 42.5216H19.3343V21.4784H23.0975V39.2256H32.7508L32.7529 42.5216ZM45.8324 29.8197C45.5551 29.7173 44.5631 29.6149 43.9956 29.6149C41.6767 29.6149 40.0425 31.0741 40.0425 33.3035V42.5195H36.4265V26.5643H39.9124V29.0432H40.1599C40.5972 27.4688 42.3039 26.3019 44.3455 26.3019C44.8553 26.3019 45.4825 26.3595 45.8324 26.4619V29.8197Z" fill="#C32285"/>
</svg>
