<svg width="36" height="36" viewBox="0 0 36 36" fill="none" xmlns="http://www.w3.org/2000/svg">
<path d="M30.1439 8.33518C27.2352 5.99758 22.6355 5.60158 22.4412 5.58478C22.1339 5.55838 21.8424 5.73238 21.7164 6.01318C21.7115 6.02278 21.4548 6.76798 21.2064 7.48678C24.5868 8.07838 26.8835 9.39118 27.0059 9.46318C27.5795 9.79678 27.7715 10.5324 27.4368 11.1048C27.2148 11.4864 26.8127 11.7 26.4 11.7C26.1947 11.7 25.9883 11.6484 25.7987 11.538C25.7652 11.5176 22.3955 9.59998 18.0023 9.59998C13.608 9.59998 10.2372 11.5188 10.2036 11.538C9.63115 11.8704 8.89675 11.6748 8.56435 11.1012C8.23195 10.53 8.42515 9.79678 8.99635 9.46318C9.11875 9.39118 11.424 8.07358 14.814 7.48318C14.5524 6.75598 14.2884 6.02278 14.2836 6.01318C14.1575 5.73118 13.866 5.55358 13.5588 5.58478C13.3644 5.60038 8.76475 5.99638 5.81755 8.36638C4.27675 9.78958 1.19995 18.1104 1.19995 25.3044C1.19995 25.4316 1.23235 25.5552 1.29595 25.6656C3.42115 29.3976 9.21475 30.3744 10.5348 30.4164C10.5432 30.4176 10.5504 30.4176 10.5576 30.4176C10.7904 30.4176 11.01 30.306 11.148 30.1176L12.5759 28.1832C9.44395 27.4284 7.78795 26.2416 7.68835 26.1684C7.15555 25.776 7.04035 25.0248 7.43275 24.4908C7.82395 23.9592 8.57275 23.8416 9.10555 24.2316C9.14995 24.2604 12.2064 26.4 18 26.4C23.8163 26.4 26.8644 24.252 26.8944 24.2304C27.4272 23.844 28.1783 23.9604 28.5683 24.4956C28.9571 25.0284 28.8443 25.7748 28.3139 26.166C28.2143 26.2392 26.5667 27.4236 23.4419 28.1784L24.8519 30.1164C24.9899 30.306 25.2095 30.4164 25.4423 30.4164C25.4507 30.4164 25.458 30.4164 25.4652 30.4152C26.7864 30.3732 32.58 29.3964 34.7039 25.6644C34.7675 25.554 34.7999 25.4304 34.7999 25.3032C34.7999 18.1104 31.7232 9.78958 30.1439 8.33518ZM13.2 22.8C11.874 22.8 10.8 21.4572 10.8 19.8C10.8 18.1428 11.874 16.8 13.2 16.8C14.526 16.8 15.6 18.1428 15.6 19.8C15.6 21.4572 14.526 22.8 13.2 22.8ZM22.7999 22.8C21.4739 22.8 20.4 21.4572 20.4 19.8C20.4 18.1428 21.4739 16.8 22.7999 16.8C24.1259 16.8 25.1999 18.1428 25.1999 19.8C25.1999 21.4572 24.1259 22.8 22.7999 22.8Z" fill="white" fill-opacity="0.8"/>
</svg>
