<svg width="36" height="36" viewBox="0 0 36 36" fill="none" xmlns="http://www.w3.org/2000/svg">
<path d="M16.35 3.15C9.45001 3.9 3.90001 9.45 3.15001 16.2C2.40001 23.25 6.45001 29.55 12.6 31.95C13.05 32.1 13.5 31.8 13.5 31.2V28.8C13.5 28.8 12.9 28.95 12.15 28.95C10.05 28.95 9.15001 27.15 9.00001 26.1C8.85001 25.5 8.55001 25.05 8.10001 24.6C7.65001 24.45 7.50001 24.45 7.50001 24.3C7.50001 24 7.95001 24 8.10001 24C9.00001 24 9.75001 25.05 10.05 25.5C10.8 26.7 11.7 27 12.15 27C12.75 27 13.2 26.85 13.5 26.7C13.65 25.65 14.1 24.6 15 24C11.55 23.25 9.00001 21.3 9.00001 18C9.00001 16.35 9.75001 14.7 10.8 13.5C10.65 13.2 10.5 12.45 10.5 11.4C10.5 10.8 10.5 9.9 10.95 9C10.95 9 13.05 9 15.15 10.95C15.9 10.65 16.95 10.5 18 10.5C19.05 10.5 20.1 10.65 21 10.95C22.95 9 25.2 9 25.2 9C25.5 9.9 25.5 10.8 25.5 11.4C25.5 12.6 25.35 13.2 25.2 13.5C26.25 14.7 27 16.2 27 18C27 21.3 24.45 23.25 21 24C21.9 24.75 22.5 26.1 22.5 27.45V31.35C22.5 31.8 22.95 32.25 23.55 32.1C29.1 29.85 33 24.45 33 18.15C33 9.15 25.35 2.1 16.35 3.15Z" fill="white" fill-opacity="0.8"/>
</svg>
