<svg width="36" height="36" viewBox="0 0 36 36" fill="none" xmlns="http://www.w3.org/2000/svg">
<path d="M26.01 8.19C25.654 8.19 25.306 8.29557 25.01 8.49335C24.714 8.69114 24.4833 8.97226 24.347 9.30117C24.2108 9.63008 24.1751 9.992 24.2446 10.3412C24.314 10.6903 24.4855 11.0111 24.7372 11.2628C24.9889 11.5145 25.3097 11.686 25.6588 11.7554C26.008 11.8249 26.3699 11.7892 26.6988 11.653C27.0277 11.5167 27.3089 11.286 27.5066 10.99C27.7044 10.694 27.81 10.346 27.81 9.99C27.81 9.51261 27.6204 9.05477 27.2828 8.71721C26.9452 8.37964 26.4874 8.19 26.01 8.19ZM32.91 11.82C32.8808 10.5754 32.6477 9.3441 32.22 8.175C31.8386 7.1747 31.245 6.26892 30.48 5.52C29.7372 4.75114 28.8293 4.16126 27.825 3.795C26.659 3.35424 25.4263 3.11581 24.18 3.09C22.59 3 22.08 3 18 3C13.92 3 13.41 3 11.82 3.09C10.5737 3.11581 9.34101 3.35424 8.175 3.795C7.17251 4.16497 6.2654 4.75434 5.52 5.52C4.75114 6.26277 4.16126 7.17066 3.795 8.175C3.35424 9.34101 3.11581 10.5737 3.09 11.82C3 13.41 3 13.92 3 18C3 22.08 3 22.59 3.09 24.18C3.11581 25.4263 3.35424 26.659 3.795 27.825C4.16126 28.8293 4.75114 29.7372 5.52 30.48C6.2654 31.2457 7.17251 31.835 8.175 32.205C9.34101 32.6458 10.5737 32.8842 11.82 32.91C13.41 33 13.92 33 18 33C22.08 33 22.59 33 24.18 32.91C25.4263 32.8842 26.659 32.6458 27.825 32.205C28.8293 31.8387 29.7372 31.2489 30.48 30.48C31.2484 29.7339 31.8425 28.8273 32.22 27.825C32.6477 26.6559 32.8808 25.4246 32.91 24.18C32.91 22.59 33 22.08 33 18C33 13.92 33 13.41 32.91 11.82ZM30.21 24C30.1991 24.9522 30.0266 25.8956 29.7 26.79C29.4605 27.4428 29.0758 28.0326 28.575 28.515C28.0885 29.0108 27.4998 29.3946 26.85 29.64C25.9556 29.9666 25.0122 30.1391 24.06 30.15C22.56 30.225 22.005 30.24 18.06 30.24C14.115 30.24 13.56 30.24 12.06 30.15C11.0713 30.1685 10.0869 30.0163 9.15 29.7C8.52867 29.4421 7.96703 29.0592 7.5 28.575C7.00213 28.0931 6.62226 27.5028 6.39 26.85C6.02378 25.9427 5.82067 24.9779 5.79 24C5.79 22.5 5.7 21.945 5.7 18C5.7 14.055 5.7 13.5 5.79 12C5.79672 11.0266 5.97443 10.0619 6.315 9.15C6.57907 8.51687 6.9844 7.95249 7.5 7.5C7.95572 6.98425 8.51893 6.57464 9.15 6.3C10.0643 5.97007 11.028 5.79762 12 5.79C13.5 5.79 14.055 5.7 18 5.7C21.945 5.7 22.5 5.7 24 5.79C24.9522 5.80092 25.8956 5.97337 26.79 6.3C27.4716 6.55298 28.0834 6.96427 28.575 7.5C29.0666 7.96077 29.4506 8.5241 29.7 9.15C30.0334 10.0634 30.2059 11.0277 30.21 12C30.285 13.5 30.3 14.055 30.3 18C30.3 21.945 30.285 22.5 30.21 24ZM18 10.305C16.4787 10.308 14.9924 10.7618 13.729 11.6091C12.4655 12.4565 11.4816 13.6593 10.9015 15.0656C10.3213 16.472 10.1711 18.0187 10.4697 19.5104C10.7683 21.0021 11.5024 22.3718 12.5791 23.4465C13.6559 24.5211 15.027 25.2525 16.5193 25.5482C18.0116 25.8439 19.558 25.6907 20.9632 25.1078C22.3684 24.525 23.5693 23.5387 24.4142 22.2736C25.2591 21.0084 25.71 19.5213 25.71 18C25.712 16.9877 25.5138 15.9849 25.1269 15.0494C24.7399 14.114 24.1718 13.2642 23.4553 12.5491C22.7388 11.8339 21.8879 11.2675 20.9517 10.8824C20.0155 10.4973 19.0123 10.301 18 10.305ZM18 22.995C17.0121 22.995 16.0464 22.702 15.2249 22.1532C14.4035 21.6043 13.7633 20.8242 13.3852 19.9115C13.0072 18.9988 12.9082 17.9945 13.101 17.0255C13.2937 16.0566 13.7694 15.1666 14.468 14.468C15.1666 13.7694 16.0566 13.2937 17.0255 13.101C17.9945 12.9082 18.9988 13.0072 19.9115 13.3852C20.8242 13.7633 21.6043 14.4035 22.1532 15.2249C22.702 16.0464 22.995 17.0121 22.995 18C22.995 18.656 22.8658 19.3055 22.6148 19.9115C22.3638 20.5175 21.9958 21.0682 21.532 21.532C21.0682 21.9958 20.5175 22.3638 19.9115 22.6148C19.3055 22.8658 18.656 22.995 18 22.995Z" fill="white" fill-opacity="0.8"/>
</svg>
