<svg width="36" height="36" viewBox="0 0 36 36" fill="none" xmlns="http://www.w3.org/2000/svg">
<path d="M7.5 4.5C5.8425 4.5 4.5 5.8425 4.5 7.5V28.5C4.5 30.1575 5.8425 31.5 7.5 31.5H28.5C30.1575 31.5 31.5 30.1575 31.5 28.5V7.5C31.5 5.8425 30.1575 4.5 28.5 4.5H7.5ZM7.5 7.5H28.5V28.5H7.5V7.5ZM11.6689 9.47461C10.3834 9.47461 9.6123 10.2474 9.6123 11.2764C9.6123 12.3054 10.3835 13.0752 11.54 13.0752C12.8255 13.0752 13.5967 12.3054 13.5967 11.2764C13.5967 10.2474 12.8254 9.47461 11.6689 9.47461ZM9.71484 15V25.5H13.5V15H9.71484ZM16.623 15V25.5H20.4082V19.7607C20.4082 18.0522 21.6272 17.8066 21.9932 17.8066C22.3592 17.8066 23.3379 18.1737 23.3379 19.7607V25.5H27V19.7607C27 16.4652 25.5356 15 23.7041 15C21.8726 15 20.8957 15.6098 20.4082 16.4648V15H16.623Z" fill="white" fill-opacity="0.8"/>
</svg>
